<?xml version="1.0" encoding="UTF-8" standalone="no"?>
<!-- Created with Inkscape (http://www.inkscape.org/) -->

<svg
   width="48pt"
   height="48pt"
   viewBox="0 0 16.933334 16.933333"
   version="1.1"
   id="svg979"
   inkscape:version="1.1 (c68e22c387, 2021-05-23)"
   sodipodi:docname="24 - Earth.svg"
   inkscape:export-filename="E:\TR Design Studio Creative\Project Design\TR Creative Design\Icon Design\Project Hiring\Icon Icons\006 - Ecology\Send\3 - Flat\24 - Earth.png"
   inkscape:export-xdpi="768"
   inkscape:export-ydpi="768"
   xmlns:inkscape="http://www.inkscape.org/namespaces/inkscape"
   xmlns:sodipodi="http://sodipodi.sourceforge.net/DTD/sodipodi-0.dtd"
   xmlns="http://www.w3.org/2000/svg"
   xmlns:svg="http://www.w3.org/2000/svg"
   xmlns:rdf="http://www.w3.org/1999/02/22-rdf-syntax-ns#"
   xmlns:cc="http://creativecommons.org/ns#"
   xmlns:dc="http://purl.org/dc/elements/1.1/">
  <defs
     id="defs973" />
  <sodipodi:namedview
     id="base"
     pagecolor="#ffffff"
     bordercolor="#666666"
     borderopacity="1.0"
     inkscape:pageopacity="0.0"
     inkscape:pageshadow="2"
     inkscape:zoom="7.6875"
     inkscape:cx="26.601626"
     inkscape:cy="32"
     inkscape:document-units="pt"
     inkscape:current-layer="layer1"
     showgrid="false"
     units="pt"
     inkscape:window-width="1366"
     inkscape:window-height="716"
     inkscape:window-x="-8"
     inkscape:window-y="-8"
     inkscape:window-maximized="1"
     inkscape:pagecheckerboard="0"
     inkscape:snap-bbox="true"
     inkscape:snap-nodes="false"
     inkscape:bbox-nodes="true"
     showguides="false">
    <inkscape:grid
       type="xygrid"
       id="grid1526" />
    <sodipodi:guide
       position="0.97013909,15.963209"
       orientation="56.666615,0"
       id="guide1528"
       inkscape:locked="false" />
    <sodipodi:guide
       position="0.97013909,0.97016731"
       orientation="0,56.666667"
       id="guide1530"
       inkscape:locked="false" />
    <sodipodi:guide
       position="15.963195,0.97016731"
       orientation="-56.666615,0"
       id="guide1532"
       inkscape:locked="false" />
    <sodipodi:guide
       position="15.963195,15.963209"
       orientation="0,-56.666667"
       id="guide1534"
       inkscape:locked="false" />
  </sodipodi:namedview>
  <metadata
     id="metadata976">
    <rdf:RDF>
      <cc:Work
         rdf:about="">
        <dc:format>image/svg+xml</dc:format>
        <dc:type
           rdf:resource="http://purl.org/dc/dcmitype/StillImage" />
      </cc:Work>
    </rdf:RDF>
  </metadata>
  <g
     inkscape:label="Layer 1"
     inkscape:groupmode="layer"
     id="layer1"
     transform="translate(0,-280.06668)">
    <g
       id="g302060"
       style="display:inline;stroke-width:0.81173"
       transform="matrix(1.2319363,0,0,1.2319363,-80.712756,-123.7671)">
      <path
         style="color:#000000;fill:#87d1ee;stroke-width:0.81173;stroke-linecap:round;stroke-linejoin:round;-inkscape-stroke:none;paint-order:markers fill stroke"
         d="m 72.390625,328.5918 c -3.357747,0 -6.085937,2.72623 -6.085938,6.08398 0,3.35775 2.728191,6.08594 6.085938,6.08594 3.357747,0 6.083984,-2.72819 6.083984,-6.08594 0,-3.35775 -2.726237,-6.08398 -6.083984,-6.08398 z"
         id="path287660" />
      <path
         id="path289905"
         style="color:#000000;fill:#2bb3cd;fill-opacity:1;stroke-width:0.81173;stroke-linecap:round;stroke-linejoin:round;-inkscape-stroke:none;paint-order:markers fill stroke"
         d="m 72.390224,328.5918 c -1.846683,0 -3.502638,0.82468 -4.619355,2.12545 0.763731,-0.34545 1.610789,-0.53795 2.502689,-0.53795 3.357747,0 6.084384,2.72612 6.084384,6.08386 0,1.51228 -0.553492,2.8969 -1.468128,3.96204 2.112847,-0.95484 3.584795,-3.0823 3.584795,-5.54954 0,-3.35774 -2.726637,-6.08386 -6.084385,-6.08386 z" />
      <path
         id="path287668"
         style="color:#000000;fill:#50b86b;stroke-width:3.06796;stroke-linecap:round;stroke-linejoin:round;-inkscape-stroke:none;paint-order:markers fill stroke"
         d="m 273.60156,167.40234 c -7.48118,0 -14.13342,3.58154 -18.33594,9.1211 l 0.9961,0.57812 c 0.14933,0.11452 5.1928,3.96795 10.52734,3.86133 0.6036,-7.9e-4 1.32276,-0.10259 2.05274,-0.21484 1.17886,1.16092 2.1328,1.80532 3.9414,3.44726 1.25822,1.14225 2.47876,1.95248 3.875,2.06836 1.39624,0.11603 2.75067,-0.57303 3.99414,-1.86914 3.54959,-3.69966 3.88286,-8.29795 4.6875,-13.01367 a 1.0001006,1.0001006 0 0 0 0.008,-0.0508 l 0.082,-0.65235 c -3.45674,-2.07934 -7.50399,-3.27539 -11.82813,-3.27539 z"
         transform="matrix(0.26458333,0,0,0.26458333,0,284.3)" />
      <path
         id="path287676"
         style="color:#000000;fill:#50b86b;stroke-width:3.06796;stroke-linecap:round;stroke-linejoin:round;-inkscape-stroke:none;paint-order:markers fill stroke"
         d="m 268.17188,186.20117 c -0.49243,-0.003 -0.90729,0.0176 -1.20508,0.0176 h -15.98438 c -0.24935,1.35507 -0.38281,2.75109 -0.38281,4.17773 0,3.03736 0.59345,5.93774 1.66601,8.59375 l 0.59376,0.0723 c 1.13631,0.20787 2.28601,0.34201 3.34374,0.42188 1.74981,0.1319 3.26752,1.70882 4.4375,3.46093 0.92026,1.37817 2.22373,2.63112 3.71876,3.47657 1.48592,0.84026 3.20851,1.28044 4.88671,0.84179 1.68301,-0.37304 2.8906,-1.30394 3.53711,-2.41992 0.6431,-1.11012 0.77344,-2.34814 0.53125,-3.41797 v -0.002 c -0.28312,-1.42128 0.11566,-2.05441 0.73828,-2.94336 0.62292,-0.88932 1.60049,-1.98399 1.625,-3.67578 a 1.0001006,1.0001006 0 0 0 0,-0.002 1.0001006,1.0001006 0 0 0 0,-0.002 1.0001006,1.0001006 0 0 0 0,-0.002 1.0001006,1.0001006 0 0 0 0,-0.002 1.0001006,1.0001006 0 0 0 0,-0.002 1.0001006,1.0001006 0 0 0 0,-0.002 1.0001006,1.0001006 0 0 0 0,-0.002 1.0001006,1.0001006 0 0 0 0,-0.002 c 0,-4.32601 -1.61529,-6.707 -3.60351,-7.74414 -1.36691,-0.71301 -2.81902,-0.83625 -3.90234,-0.84375 z"
         transform="matrix(0.26458333,0,0,0.26458333,0,284.3)" />
      <path
         id="path287684"
         style="color:#000000;fill:#50b86b;stroke-width:3.06796;stroke-linecap:round;stroke-linejoin:round;-inkscape-stroke:none;paint-order:markers fill stroke"
         d="m 291.08984,187.96289 c -1.18824,0.0144 -2.26038,0.3272 -3.16015,0.86133 -2.05663,1.22071 -3.20313,3.42426 -3.20313,5.52148 0,0.93128 -0.16468,1.43525 -0.36133,1.7793 -0.19664,0.34394 -0.46094,0.5736 -0.84179,0.87891 -0.38086,0.30538 -0.88392,0.67433 -1.29102,1.29882 -0.40709,0.62446 -0.6582,1.46935 -0.6582,2.53907 0,2.61025 0.30322,4.32858 0.90039,5.66211 0.59716,1.33353 1.46517,2.19563 2.35547,3.08593 l 0.5332,0.57032 c 6.72495,-4.01678 11.23438,-11.3695 11.23438,-19.76368 0,-0.16306 -0.002,-0.32601 -0.006,-0.48828 l -0.3711,-0.29492 a 1.0001006,1.0001006 0 0 0 -0.0879,-0.0586 c -1.59376,-1.00853 -3.13074,-1.49742 -4.52539,-1.58008 -0.17433,-0.0104 -0.34783,-0.0138 -0.51758,-0.0117 z"
         transform="matrix(0.26458333,0,0,0.26458333,0,284.3)" />
      <path
         id="path291789"
         style="color:#000000;fill:#46a05d;fill-opacity:1;stroke-width:0.811731;stroke-linecap:round;stroke-linejoin:round;-inkscape-stroke:none;paint-order:markers fill stroke"
         d="m 72.390412,328.59187 c -1.752896,-0.0115 -3.484885,0.78952 -4.618363,2.12503 1.800675,-0.82776 4.004606,-0.68994 5.684993,0.3624 0.51775,0.31879 0.987296,0.71554 1.388478,1.1724 0.429559,-0.86206 0.519449,-1.83617 0.671957,-2.77356 -0.193394,-0.16817 -0.486378,-0.27629 -0.729808,-0.39472 -0.754893,-0.32463 -1.575795,-0.4917 -2.397257,-0.49155 z" />
      <path
         id="path295652"
         style="color:#000000;fill:#46a05d;fill-opacity:1;stroke-width:0.81173;stroke-linecap:round;stroke-linejoin:round;-inkscape-stroke:none;paint-order:markers fill stroke"
         d="m 77.017519,334.03185 c -0.344578,0.003 -0.69079,0.10834 -0.967899,0.31579 0.56623,1.68149 0.344403,3.60706 -0.59849,5.11127 -0.0991,0.13272 -0.198467,0.25725 -0.02601,0.36337 0.11176,0.19413 0.291728,-0.10458 0.427895,-0.1436 1.38994,-0.95743 2.350605,-2.5128 2.567533,-4.18832 0.04123,-0.31272 0.05942,-0.62852 0.0527,-0.9439 -0.408371,-0.31658 -0.936442,-0.51661 -1.455732,-0.51461 z" />
      <path
         id="path299845"
         style="color:#000000;fill:#46a05d;fill-opacity:1;stroke-width:0.81173;stroke-linecap:round;stroke-linejoin:round;-inkscape-stroke:none;paint-order:markers fill stroke"
         d="m 70.953809,333.56573 c -0.130288,-9.1e-4 -0.240053,0.005 -0.318844,0.005 h -0.578776 c 0.26121,0.0138 0.574165,0.0633 0.871781,0.2186 0.52605,0.27441 0.953429,0.90438 0.953429,2.04897 a 0.26460995,0.26460995 0 0 0 0,5.1e-4 0.26460995,0.26460995 0 0 0 0,5.2e-4 0.26460995,0.26460995 0 0 0 0,5.2e-4 0.26460995,0.26460995 0 0 0 0,5.1e-4 0.26460995,0.26460995 0 0 0 0,5.2e-4 0.26460995,0.26460995 0 0 0 0,5.1e-4 0.26460995,0.26460995 0 0 0 0,5.2e-4 0.26460995,0.26460995 0 0 0 0,5.2e-4 c -0.0065,0.44762 -0.265134,0.73725 -0.429948,0.97255 -0.164735,0.23521 -0.270245,0.40271 -0.195337,0.77876 v 5.2e-4 c 0.06408,0.28306 0.02959,0.61062 -0.140559,0.90434 -0.149241,0.25761 -0.411338,0.47775 -0.771528,0.59531 0.287994,0.095 0.593757,0.12344 0.894001,0.045 0.445299,-0.0987 0.764804,-0.345 0.93586,-0.64027 0.170153,-0.29372 0.204639,-0.62128 0.14056,-0.90434 v -5.2e-4 c -0.07491,-0.37605 0.0306,-0.54355 0.195336,-0.77876 0.164815,-0.2353 0.423463,-0.52493 0.429948,-0.97255 a 0.26460995,0.26460995 0 0 0 0,-5.2e-4 0.26460995,0.26460995 0 0 0 0,-5.2e-4 0.26460995,0.26460995 0 0 0 0,-5.1e-4 0.26460995,0.26460995 0 0 0 0,-5.2e-4 0.26460995,0.26460995 0 0 0 0,-5.1e-4 0.26460995,0.26460995 0 0 0 0,-5.2e-4 0.26460995,0.26460995 0 0 0 0,-5.2e-4 0.26460995,0.26460995 0 0 0 0,-5.1e-4 c 0,-1.14459 -0.427379,-1.77456 -0.953428,-2.04897 -0.361662,-0.18865 -0.745866,-0.22127 -1.032495,-0.22325 z" />
    </g>
  </g>
</svg>
